<svg width="192" height="192" viewBox="0 0 192 192" fill="none" xmlns="http://www.w3.org/2000/svg">
  <!-- Main architectural form - abstract building cluster (scaled up and centered) -->
  <rect x="60" y="60" width="24" height="52" rx="3" fill="url(#buildingGradient1)" transform="rotate(-5 72 86)" />
  <rect x="82" y="50" width="18" height="63" rx="3" fill="url(#buildingGradient2)" transform="rotate(3 91 81.5)" />
  <rect x="98" y="70" width="21" height="45" rx="3" fill="url(#buildingGradient3)" transform="rotate(-2 108.5 92.5)" />

  <!-- Senda-inspired organic connector - flowing bridge -->
  <path d="M50 130C60 120 75 127 88 120C101 113 116 120 129 113C142 106 157 113 170 120" stroke="url(#bridgeGradient)" stroke-width="9" stroke-linecap="round" fill="none" opacity="0.8" />

  <!-- Geometric urban elements - Senda's playground style -->
  <circle cx="48" cy="75" r="12" fill="url(#elementGradient1)" opacity="0.9" />
  <polygon points="140,60 148,45 156,60" fill="url(#elementGradient2)" />

  <!-- Organic flowing paths - abstract streets -->
  <path d="M32 105C42 99 52 105 62 99C72 93 82 99 92 93" stroke="url(#pathGradient)" stroke-width="6" stroke-linecap="round" fill="none" opacity="0.6" />
  <path d="M100 93C110 99 120 93 130 99C140 105 150 99 160 105" stroke="url(#pathGradient)" stroke-width="6" stroke-linecap="round" fill="none" opacity="0.6" />

  <!-- Abstract urban accent - Noguchi stone-like -->
  <ellipse cx="112" cy="45" rx="9" ry="6" fill="url(#accentGradient)" transform="rotate(15 112 45)" />

  <!-- Geometric balance elements -->
  <rect x="42" y="52" width="9" height="9" rx="2" fill="url(#balanceGradient1)" transform="rotate(45 46.5 56.5)" />
  <circle cx="142" cy="125" r="5" fill="url(#balanceGradient2)" />

  <!-- Flowing urban current - bottom connection -->
  <path d="M40 145C50 140 60 147 70 140C80 133 90 140 100 133C110 126 120 133 130 140C140 147 150 140 160 145" stroke="url(#currentGradient)" stroke-width="5" stroke-linecap="round" fill="none" opacity="0.7" />

  <!-- Gradient definitions -->
  <defs>
    <linearGradient id="buildingGradient1" x1="0%" y1="0%" x2="100%" y2="100%">
      <stop offset="0%" stop-color="#455a64" />
      <stop offset="100%" stop-color="#263238" />
    </linearGradient>

    <linearGradient id="buildingGradient2" x1="0%" y1="0%" x2="100%" y2="100%">
      <stop offset="0%" stop-color="#5e35b1" />
      <stop offset="100%" stop-color="#4527a0" />
    </linearGradient>

    <linearGradient id="buildingGradient3" x1="0%" y1="0%" x2="100%" y2="100%">
      <stop offset="0%" stop-color="#1e88e5" />
      <stop offset="100%" stop-color="#1565c0" />
    </linearGradient>

    <linearGradient id="bridgeGradient" x1="0%" y1="0%" x2="100%" y2="0%">
      <stop offset="0%" stop-color="#ff9800" />
      <stop offset="50%" stop-color="#f57c00" />
      <stop offset="100%" stop-color="#ef6c00" />
    </linearGradient>

    <radialGradient id="elementGradient1" cx="50%" cy="50%" r="50%">
      <stop offset="0%" stop-color="#66bb6a" />
      <stop offset="100%" stop-color="#43a047" />
    </radialGradient>

    <linearGradient id="elementGradient2" x1="0%" y1="0%" x2="100%" y2="100%">
      <stop offset="0%" stop-color="#ec407a" />
      <stop offset="100%" stop-color="#c2185b" />
    </linearGradient>

    <linearGradient id="pathGradient" x1="0%" y1="0%" x2="100%" y2="0%">
      <stop offset="0%" stop-color="#42a5f5" />
      <stop offset="50%" stop-color="#2196f3" />
      <stop offset="100%" stop-color="#1976d2" />
    </linearGradient>

    <radialGradient id="accentGradient" cx="50%" cy="50%" r="50%">
      <stop offset="0%" stop-color="#ffa726" />
      <stop offset="100%" stop-color="#fb8c00" />
    </radialGradient>

    <radialGradient id="balanceGradient1" cx="50%" cy="50%" r="50%">
      <stop offset="0%" stop-color="#ab47bc" />
      <stop offset="100%" stop-color="#8e24aa" />
    </radialGradient>

    <radialGradient id="balanceGradient2" cx="50%" cy="50%" r="50%">
      <stop offset="0%" stop-color="#26c6da" />
      <stop offset="100%" stop-color="#00acc1" />
    </radialGradient>

    <linearGradient id="currentGradient" x1="0%" y1="0%" x2="100%" y2="0%">
      <stop offset="0%" stop-color="#7e57c2" />
      <stop offset="50%" stop-color="#673ab7" />
      <stop offset="100%" stop-color="#512da8" />
    </linearGradient>
  </defs>
</svg>
