<svg width="192" height="192" viewBox="0 0 192 192" fill="none" xmlns="http://www.w3.org/2000/svg">
  <!-- Full background gradient -->
  <rect width="192" height="192" fill="url(#bgGradient)"/>

  <!-- Main architectural buildings - MUCH LARGER, covering most of the canvas -->
  <rect x="40" y="40" width="45" height="95" rx="6" fill="url(#buildingGradient1)" transform="rotate(-5 62.5 87.5)" />
  <rect x="75" y="25" width="35" height="115" rx="6" fill="url(#buildingGradient2)" transform="rotate(3 92.5 82.5)" />
  <rect x="105" y="50" width="40" height="85" rx="6" fill="url(#buildingGradient3)" transform="rotate(-2 125 92.5)" />

  <!-- Large flowing bridge across bottom -->
  <path d="M10 155C35 140 55 152 80 140C105 128 125 140 150 128C175 116 195 128 220 140" stroke="url(#bridgeGradient)" stroke-width="15" stroke-linecap="round" fill="none" opacity="0.9" />

  <!-- Large geometric elements -->
  <circle cx="30" cy="70" r="22" fill="url(#elementGradient1)" opacity="0.95" />
  <polygon points="155,45 168,20 181,45" fill="url(#elementGradient2)" />

  <!-- Thick flowing paths -->
  <path d="M0 120C25 110 45 125 70 110C95 95 115 110 140 95" stroke="url(#pathGradient)" stroke-width="11" stroke-linecap="round" fill="none" opacity="0.75" />
  <path d="M52 95C77 110 97 95 122 110C147 125 167 110 192 120" stroke="url(#pathGradient)" stroke-width="11" stroke-linecap="round" fill="none" opacity="0.75" />

  <!-- Large urban accent -->
  <ellipse cx="130" cy="30" rx="16" ry="11" fill="url(#accentGradient)" transform="rotate(15 130 30)" />

  <!-- Large balance elements -->
  <rect x="25" y="40" width="16" height="16" rx="3" fill="url(#balanceGradient1)" transform="rotate(45 33 48)" />
  <circle cx="165" cy="155" r="10" fill="url(#balanceGradient2)" />

  <!-- Wide bottom current covering edge -->
  <path d="M-5 175C20 165 40 180 65 165C90 150 110 165 135 150C160 135 180 150 205 165" stroke="url(#currentGradient)" stroke-width="10" stroke-linecap="round" fill="none" opacity="0.8" />

  <!-- Extra large decorative elements to fill space -->
  <circle cx="165" cy="80" r="12" fill="url(#elementGradient1)" opacity="0.6" />
  <circle cx="25" cy="150" r="15" fill="url(#balanceGradient2)" opacity="0.5" />
  <rect x="150" y="120" width="12" height="12" rx="2" fill="url(#accentGradient)" transform="rotate(30 156 126)" opacity="0.7" />

  <defs>
    <radialGradient id="bgGradient" cx="50%" cy="50%" r="70%">
      <stop offset="0%" stop-color="#e1bee7" />
      <stop offset="100%" stop-color="#ba68c8" />
    </radialGradient>

    <linearGradient id="buildingGradient1" x1="0%" y1="0%" x2="100%" y2="100%">
      <stop offset="0%" stop-color="#607d8b" />
      <stop offset="100%" stop-color="#455a64" />
    </linearGradient>

    <linearGradient id="buildingGradient2" x1="0%" y1="0%" x2="100%" y2="100%">
      <stop offset="0%" stop-color="#9575cd" />
      <stop offset="100%" stop-color="#7e57c2" />
    </linearGradient>

    <linearGradient id="buildingGradient3" x1="0%" y1="0%" x2="100%" y2="100%">
      <stop offset="0%" stop-color="#64b5f6" />
      <stop offset="100%" stop-color="#42a5f5" />
    </linearGradient>

    <linearGradient id="bridgeGradient" x1="0%" y1="0%" x2="100%" y2="0%">
      <stop offset="0%" stop-color="#ffb74d" />
      <stop offset="50%" stop-color="#ffa726" />
      <stop offset="100%" stop-color="#ff9800" />
    </linearGradient>

    <radialGradient id="elementGradient1" cx="50%" cy="50%" r="50%">
      <stop offset="0%" stop-color="#aed581" />
      <stop offset="100%" stop-color="#81c784" />
    </radialGradient>

    <linearGradient id="elementGradient2" x1="0%" y1="0%" x2="100%" y2="100%">
      <stop offset="0%" stop-color="#f48fb1" />
      <stop offset="100%" stop-color="#f06292" />
    </linearGradient>

    <linearGradient id="pathGradient" x1="0%" y1="0%" x2="100%" y2="0%">
      <stop offset="0%" stop-color="#90caf9" />
      <stop offset="50%" stop-color="#64b5f6" />
      <stop offset="100%" stop-color="#42a5f5" />
    </linearGradient>

    <radialGradient id="accentGradient" cx="50%" cy="50%" r="50%">
      <stop offset="0%" stop-color="#ffcc80" />
      <stop offset="100%" stop-color="#ffb74d" />
    </radialGradient>

    <radialGradient id="balanceGradient1" cx="50%" cy="50%" r="50%">
      <stop offset="0%" stop-color="#ce93d8" />
      <stop offset="100%" stop-color="#ba68c8" />
    </radialGradient>

    <radialGradient id="balanceGradient2" cx="50%" cy="50%" r="50%">
      <stop offset="0%" stop-color="#80deea" />
      <stop offset="100%" stop-color="#4dd0e1" />
    </radialGradient>

    <linearGradient id="currentGradient" x1="0%" y1="0%" x2="100%" y2="0%">
      <stop offset="0%" stop-color="#b39ddb" />
      <stop offset="50%" stop-color="#9575cd" />
      <stop offset="100%" stop-color="#7e57c2" />
    </linearGradient>
  </defs>
</svg>
